<svg width="18" height="18" viewBox="0 0 18 18" fill="none" xmlns="http://www.w3.org/2000/svg">
<path fill-rule="evenodd" clip-rule="evenodd" d="M11.3831 12.4451C10.0351 13.5222 8.32581 14.0422 6.60631 13.8984C4.88682 13.7546 3.28765 12.9579 2.13727 11.6718C0.986879 10.3857 0.372596 8.70801 0.420583 6.98318C0.468569 5.25835 1.17518 3.61736 2.39529 2.39725C3.61541 1.17713 5.25639 0.470522 6.98122 0.422536C8.70606 0.374549 10.3838 0.988832 11.6699 2.13922C12.9559 3.28961 13.7527 4.88877 13.8965 6.60827C14.0403 8.32776 13.5202 10.0371 12.4431 11.3851L17.5991 16.5401C17.6728 16.6088 17.7319 16.6916 17.7729 16.7836C17.8139 16.8756 17.836 16.9749 17.8377 17.0756C17.8395 17.1763 17.821 17.2763 17.7833 17.3697C17.7455 17.4631 17.6894 17.5479 17.6182 17.6191C17.547 17.6903 17.4621 17.7465 17.3687 17.7842C17.2753 17.8219 17.1753 17.8405 17.0746 17.8387C16.9739 17.8369 16.8746 17.8149 16.7826 17.7739C16.6906 17.7329 16.6078 17.6738 16.5391 17.6001L11.3831 12.4451ZM3.45814 10.8831C2.72418 10.1491 2.22429 9.21392 2.02165 8.19586C1.81901 7.1778 1.92271 6.12253 2.31965 5.16339C2.71659 4.20425 3.38895 3.38431 4.25175 2.80719C5.11456 2.23007 6.12908 1.92167 7.16711 1.92097C8.20513 1.92027 9.22007 2.22731 10.0837 2.80327C10.9472 3.37923 11.6207 4.19826 12.0189 5.15686C12.4172 6.11546 12.5223 7.1706 12.321 8.18893C12.1197 9.20726 11.6211 10.1431 10.8881 10.8781L10.8831 10.8831L10.8781 10.8871C9.89323 11.8697 8.55856 12.4212 7.16731 12.4205C5.77605 12.4197 4.44198 11.8668 3.45814 10.8831Z" fill="white" fill-opacity="0.6"/>
</svg>
